<svg xmlns="http://www.w3.org/2000/svg" viewBox="0 0 263.21 69.38"><defs><style>.cls-1{fill:#fff;}.cls-2{fill:#a0a0a0;}.cls-3{fill:#65ca40;}.cls-4{fill:#2cabd6;}</style></defs><title>Asset 3</title><g id="Layer_2" data-name="Layer 2"><g id="Layer_1-2" data-name="Layer 1"><path class="cls-1" d="M97.52,8.28a4.82,4.82,0,0,0-2.27-1.54,8.41,8.41,0,0,0-2.72-.5A7.66,7.66,0,0,0,91,6.41a6.38,6.38,0,0,0-1.5.54,3.34,3.34,0,0,0-1.15,1,2.39,2.39,0,0,0-.44,1.47A2.42,2.42,0,0,0,89,11.53a10.05,10.05,0,0,0,2.67,1.25c1.08.35,2.24.7,3.47,1a14.29,14.29,0,0,1,3.47,1.48,8.06,8.06,0,0,1,2.68,2.55,7.74,7.74,0,0,1,1.06,4.29,9.77,9.77,0,0,1-1,4.46,9.13,9.13,0,0,1-2.63,3.17,11.21,11.21,0,0,1-3.85,1.86,17,17,0,0,1-4.62.61,17.27,17.27,0,0,1-5.66-.91,14.21,14.21,0,0,1-4.86-2.95l4.91-5.29a6.94,6.94,0,0,0,2.67,2.15,7.58,7.58,0,0,0,5,.56,5.72,5.72,0,0,0,1.55-.58,3.31,3.31,0,0,0,1.1-1,2.44,2.44,0,0,0,.42-1.43,2.59,2.59,0,0,0-1.08-2.19,10,10,0,0,0-2.72-1.36c-1.09-.38-2.27-.75-3.54-1.13a16.12,16.12,0,0,1-3.53-1.51,8.51,8.51,0,0,1-2.72-2.52A7.09,7.09,0,0,1,80.73,10a9.14,9.14,0,0,1,1-4.34,9.51,9.51,0,0,1,2.65-3.12A11.81,11.81,0,0,1,88.2.63,15.86,15.86,0,0,1,92.66,0a17.93,17.93,0,0,1,5.13.74,11.75,11.75,0,0,1,4.46,2.47Z"/><path class="cls-1" d="M106.91.78h21.26V7H113.81v5.72h13.57V19H113.81v6.24H129v6.24H106.91Z"/><path class="cls-1" d="M154.08,8.75a6.7,6.7,0,0,0-2.5-1.86,8.45,8.45,0,0,0-3.42-.65,8.75,8.75,0,0,0-3.6.74,8.56,8.56,0,0,0-2.88,2,9.68,9.68,0,0,0-1.9,3.15,11.2,11.2,0,0,0-.68,3.94,11.16,11.16,0,0,0,.68,4,10,10,0,0,0,1.88,3.12,8.52,8.52,0,0,0,2.81,2.06,8.25,8.25,0,0,0,3.47.74,7.93,7.93,0,0,0,3.76-.87,7.43,7.43,0,0,0,2.69-2.42l5.75,4.2a12,12,0,0,1-5,4,16,16,0,0,1-6.28,1.3,19.65,19.65,0,0,1-6.76-1.13,15.39,15.39,0,0,1-5.35-3.23,14.58,14.58,0,0,1-3.51-5.09,17,17,0,0,1-1.26-6.67,17,17,0,0,1,1.26-6.67,14.71,14.71,0,0,1,3.51-5.1,15.52,15.52,0,0,1,5.35-3.22A19.65,19.65,0,0,1,148.82,0a16.61,16.61,0,0,1,2.76.24,14.8,14.8,0,0,1,2.83.76,12.85,12.85,0,0,1,2.68,1.38,10.75,10.75,0,0,1,2.3,2.13Z"/><path class="cls-1" d="M160.59,16.12a17,17,0,0,1,1.26-6.67,14.71,14.71,0,0,1,3.51-5.1,15.62,15.62,0,0,1,5.35-3.22,20.82,20.82,0,0,1,13.53,0,15.62,15.62,0,0,1,5.35,3.22,14.71,14.71,0,0,1,3.51,5.1,17,17,0,0,1,1.26,6.67,17,17,0,0,1-1.26,6.67,14.58,14.58,0,0,1-3.51,5.09,15.48,15.48,0,0,1-5.35,3.23,20.82,20.82,0,0,1-13.53,0,15.48,15.48,0,0,1-5.35-3.23,14.58,14.58,0,0,1-3.51-5.09A17,17,0,0,1,160.59,16.12Zm7.16,0a10.94,10.94,0,0,0,.69,4,8.88,8.88,0,0,0,5,5.18,11.21,11.21,0,0,0,8,0,8.88,8.88,0,0,0,5-5.18,10.94,10.94,0,0,0,.69-4,11,11,0,0,0-.69-3.94,8.76,8.76,0,0,0-5-5.2,11.21,11.21,0,0,0-8,0,8.76,8.76,0,0,0-5,5.2A11,11,0,0,0,167.75,16.12Z"/><path class="cls-1" d="M198.64.78H208L221.32,22.1h.09V.78h6.89V31.46h-9L205.63,9.62h-.09V31.46h-6.9Z"/><path class="cls-1" d="M234.29.78h10.34a30,30,0,0,1,7.14.82,16.43,16.43,0,0,1,5.9,2.67,13,13,0,0,1,4,4.79,15.72,15.72,0,0,1,1.48,7.15,13.89,13.89,0,0,1-5.3,11.33,17.22,17.22,0,0,1-5.61,2.92,22.1,22.1,0,0,1-6.68,1H234.29Zm6.9,24.44h3.58a19.5,19.5,0,0,0,4.44-.48,9.63,9.63,0,0,0,3.56-1.58,7.58,7.58,0,0,0,2.36-2.9,10.07,10.07,0,0,0,.86-4.4,8.36,8.36,0,0,0-.86-3.92,7.85,7.85,0,0,0-2.32-2.75,10,10,0,0,0-3.43-1.63A15.48,15.48,0,0,0,245.25,7h-4.06Z"/><path class="cls-2" d="M80.27,37.6H90.6l7.14,20.23h.09L105,37.6h10.29v31h-6.83V44.83h-.08L100.23,68.6H95L87.19,44.83H87.1V68.6H80.27Z"/><path class="cls-2" d="M121.32,37.6h21.05v6.31H128.15v5.78h13.44V56H128.15v6.3h15V68.6H121.32Z"/><path class="cls-2" d="M153.92,43.64h-8.85v-6h24.52v6h-8.85v25h-6.82Z"/><path class="cls-2" d="M172.33,37.6h12a21.53,21.53,0,0,1,4.48.46,10.68,10.68,0,0,1,3.73,1.54,7.54,7.54,0,0,1,2.53,2.88A9.81,9.81,0,0,1,196,47a9.12,9.12,0,0,1-1.71,5.58,7.7,7.7,0,0,1-5,2.91L197.2,68.6H189l-6.48-12.39h-3.37V68.6h-6.83Zm6.83,12.83h4c.61,0,1.26,0,1.95-.07A6,6,0,0,0,187,50a3.27,3.27,0,0,0,1.38-1,3.16,3.16,0,0,0,.54-2,3.27,3.27,0,0,0-.48-1.88A3.13,3.13,0,0,0,187.22,44a5.52,5.52,0,0,0-1.71-.51,15.24,15.24,0,0,0-1.88-.13h-4.47Z"/><path class="cls-2" d="M200.38,37.6h6.82v31h-6.82Z"/><path class="cls-2" d="M233.35,45.66a6.54,6.54,0,0,0-2.47-1.88,8.22,8.22,0,0,0-3.4-.66,8.48,8.48,0,0,0-6.41,2.82,9.67,9.67,0,0,0-1.88,3.18,12.08,12.08,0,0,0,0,8,9.87,9.87,0,0,0,1.86,3.15,8.46,8.46,0,0,0,2.78,2.08,8.14,8.14,0,0,0,3.44.74,7.74,7.74,0,0,0,3.72-.87,7.49,7.49,0,0,0,2.67-2.46L239.35,64a11.8,11.8,0,0,1-5,4.07,15.4,15.4,0,0,1-6.22,1.31,19.12,19.12,0,0,1-6.7-1.13A15.44,15.44,0,0,1,216.15,65a14.75,14.75,0,0,1-3.48-5.15,18.8,18.8,0,0,1,0-13.48,14.75,14.75,0,0,1,3.48-5.15A15.44,15.44,0,0,1,221.44,38a19.12,19.12,0,0,1,6.7-1.13,16.47,16.47,0,0,1,2.74.24,14.71,14.71,0,0,1,2.8.76,12.73,12.73,0,0,1,2.65,1.4,10.72,10.72,0,0,1,2.27,2.15Z"/><path class="cls-2" d="M258.48,45.18a4.86,4.86,0,0,0-2.25-1.56,8.24,8.24,0,0,0-2.69-.5,7.56,7.56,0,0,0-1.54.17,5.85,5.85,0,0,0-1.48.55,3.23,3.23,0,0,0-1.14,1,2.72,2.72,0,0,0,.61,3.63,9.76,9.76,0,0,0,2.65,1.27c1.06.35,2.21.7,3.44,1.05a14.2,14.2,0,0,1,3.43,1.49,8.06,8.06,0,0,1,2.65,2.58,7.88,7.88,0,0,1,1,4.33,10,10,0,0,1-1,4.51,9.08,9.08,0,0,1-2.61,3.2,11,11,0,0,1-3.81,1.88,17.57,17.57,0,0,1-10.17-.3,14.14,14.14,0,0,1-4.82-3l4.86-5.34a7.19,7.19,0,0,0,2.65,2.17,7.55,7.55,0,0,0,3.3.76,7,7,0,0,0,1.69-.2,5.19,5.19,0,0,0,1.53-.59,3.31,3.31,0,0,0,1.1-1,2.57,2.57,0,0,0,.41-1.45,2.64,2.64,0,0,0-1.07-2.21,10,10,0,0,0-2.69-1.38c-1.08-.38-2.25-.76-3.5-1.14a15.36,15.36,0,0,1-3.51-1.53A8.47,8.47,0,0,1,242.92,51a7.21,7.21,0,0,1-1.07-4.16,9.35,9.35,0,0,1,1-4.37,9.62,9.62,0,0,1,2.63-3.16,11.45,11.45,0,0,1,3.79-1.9,15.59,15.59,0,0,1,4.42-.63,17.3,17.3,0,0,1,5.08.74,11.93,11.93,0,0,1,4.42,2.49Z"/><rect class="cls-3" x="38" y="0.76" width="34.1" height="67.83" rx="7.72" ry="7.72"/><rect class="cls-4" y="34.48" width="34.1" height="34.1" rx="7.72" ry="7.72"/></g></g></svg>