<svg height="512pt" viewBox="-78 0 512 512" width="512pt" xmlns="http://www.w3.org/2000/svg"><path d="m355.402344 75.035156c0-41.375-33.660156-75.035156-75.035156-75.035156h-205.332032c-41.375 0-75.035156 33.660156-75.035156 75.035156v330.449219h355.402344zm0 0" fill="#ededf2"/><path d="m280.367188 0h-102.664063v397.632812h177.699219v-322.597656c0-41.375-33.660156-75.035156-75.035156-75.035156zm0 0" fill="#e2e2e7"/><path d="m105.148438 328.804688c-8.285157 0-15-6.71875-15-15v-115.804688c0-8.285156 6.714843-15 15-15 8.285156 0 15 6.714844 15 15v115.804688c0 8.28125-6.714844 15-15 15zm0 0" fill="#ffd74a"/><path d="m250.257812 328.804688c-8.285156 0-15-6.71875-15-15v-57.902344c0-8.285156 6.714844-15 15-15 8.28125 0 15 6.714844 15 15v57.902344c0 8.28125-6.71875 15-15 15zm0 0" fill="#ff7816"/><path d="m0 397.632812v39.332032c0 41.375 33.660156 75.035156 75.035156 75.035156h205.332032c41.375 0 75.035156-33.660156 75.035156-75.035156v-39.332032zm0 0" fill="#0d5e7b"/><path d="m177.703125 397.632812v114.367188h102.664063c41.375 0 75.035156-33.660156 75.035156-75.035156v-39.332032zm0 0" fill="#04445d"/><path d="m192.703125 447.316406c0 8.285156-6.71875 15-15 15-8.285156 0-15-6.714844-15-15s6.714844-15 15-15c8.28125 0 15 6.714844 15 15zm0 0" fill="#127793"/><path d="m192.703125 447.316406c0-8.285156-6.71875-15-15-15v30c8.28125 0 15-6.714844 15-15zm0 0" fill="#0d5e7b"/><path d="m177.703125 328.804688c-8.285156 0-15-6.71875-15-15v-192.238282c0-8.285156 6.714844-15 15-15 8.28125 0 15 6.714844 15 15v192.238282c0 8.28125-6.71875 15-15 15zm0 0" fill="#fdbf00"/><path d="m192.703125 313.804688v-192.238282c0-8.285156-6.71875-15-15-15v222.238282c8.28125 0 15-6.71875 15-15zm0 0" fill="#ff9f00"/></svg>