<svg xmlns="http://www.w3.org/2000/svg" height="439pt" viewBox="0 -10 439.49 439" width="439pt">
<path d="m378.371094 122.625c33.757812.003906 61.121094 27.371094 61.117187 61.125 0 33.757812-27.363281 61.125-61.121093 61.125-33.757813 0-61.125-27.363281-61.128907-61.121094v-.117187c.039063-33.726563 27.40625-61.039063 61.132813-61.011719zm0 0"
      fill="#fedb41"/>
<path d="m414.339844 233.316406v103.488282l-35.96875-22.050782-7 4.292969-28.960938 17.757813v-103.488282l.058594-.089844c21.410156 15.542969 50.390625 15.542969 71.800781 0zm0 0"
      fill="#00acea"/>
<path d="m411.570312 176.304688-16.601562 16.179687 3.921875 22.851563-20.519531-10.789063-20.519532 10.789063 3.917969-22.851563-16.597656-16.179687 22.9375-3.339844 10.261719-20.789063 10.257812 20.789063zm0 0"
      fill="#f4b844"/>
<path d="m371.371094 319.046875v100.136719l-105.660156-.980469v-118.609375h-106.699219v117.621094l-111.140625-1.03125v-232.546875h269.367187v.117187c-.015625 19.585938 9.371094 37.984375 25.230469 49.472656l-.058594.089844v103.488282zm0 0"
      fill="#00efd1"/>
<path d="m211.769531.246094 145.339844 126.179687c-23.925781 8.882813-39.816406 31.6875-39.871094 57.210938h-317.238281zm0 0"
      fill="#00acea"/>
<path d="m265.710938 418.09375v.109375l-106.699219-.988281v-117.621094h106.699219zm0 0" fill="#fedb41"/>
</svg>